<?xml version="1.0" standalone="no"?>
<!DOCTYPE svg PUBLIC "-//W3C//DTD SVG 20010904//EN"
 "http://www.w3.org/TR/2001/REC-SVG-20010904/DTD/svg10.dtd">
<svg version="1.0" xmlns="http://www.w3.org/2000/svg"
 width="400.000000pt" height="400.000000pt" viewBox="0 0 400.000000 400.000000"
 preserveAspectRatio="xMidYMid meet">

<g transform="translate(0.000000,400.000000) scale(0.100000,-0.100000)"
fill="#000000" stroke="none">
<path d="M1935 3315 c-321 -61 -566 -296 -640 -615 -22 -96 -20 -269 5 -366
68 -267 267 -484 519 -567 215 -72 411 -57 620 44 91 44 116 63 196 142 158
158 233 321 242 533 12 244 -70 450 -248 620 -187 179 -444 256 -694 209z"/>
<path d="M1363 1750 c-386 -239 -625 -634 -659 -1087 l-7 -93 1381 0 1380 0
-4 78 c-12 182 -65 384 -141 537 -114 228 -333 462 -544 579 l-45 26 -60 -46
c-78 -59 -239 -138 -339 -166 -116 -32 -374 -32 -490 0 -106 29 -242 95 -333
160 -40 28 -74 52 -75 51 -1 0 -30 -18 -64 -39z"/>
</g>
</svg>
